<?xml version="1.0" encoding="UTF-8"?>
<svg id="Camada_2" data-name="Camada 2" xmlns="http://www.w3.org/2000/svg" viewBox="0 0 624.6 250">
  <defs>
    <style>
      .cls-1 {
        fill: #48004f;
      }

      .cls-2 {
        fill: #c210aa;
      }

      .cls-3 {
        fill: #ffe878;
      }
    </style>
  </defs>
  <g id="Logos">
    <g id="Pequeno_Cores-A_Horizontal-01">
      <g>
        <g id="Nome">
          <path class="cls-1" d="M14.47,150L0,50h16.67l6.47,53.2,2.2,23.93h1.33l1.87-24,5.53-53.13h16.53l-14.47,100H14.47Z"/>
          <path class="cls-1" d="M77.54,151.2c-5.02,0-9.14-.8-12.37-2.4-3.22-1.6-5.73-3.91-7.53-6.93-1.8-3.02-3.06-6.65-3.77-10.9-.71-4.24-1.07-8.99-1.07-14.23v-37.27c0-4.67.48-8.89,1.43-12.67.95-3.78,2.44-7,4.47-9.67,2.02-2.67,4.66-4.72,7.9-6.17,3.24-1.44,7.16-2.17,11.73-2.17s8.56.71,11.67,2.13c3.11,1.42,5.57,3.49,7.37,6.2,1.8,2.71,3.09,5.97,3.87,9.77.78,3.8,1.17,8.1,1.17,12.9v21.4h-31.8v19.67c0,4.84.38,8.73,1.13,11.67.76,2.93,2.82,4.4,6.2,4.4,2.27,0,3.88-.69,4.83-2.07.95-1.38,1.53-3.28,1.73-5.7.2-2.42.3-5.19.3-8.3v-8.8h17.47v5.33c0,5.38-.32,10.16-.97,14.33-.65,4.18-1.85,7.71-3.6,10.6-1.76,2.89-4.26,5.09-7.5,6.6-3.24,1.51-7.47,2.27-12.67,2.27ZM70.54,90.87h14.27v-12.8c0-3.33-.16-6.14-.47-8.43-.31-2.29-.93-4.01-1.87-5.17-.93-1.15-2.36-1.73-4.27-1.73-2.36,0-4.08.69-5.17,2.07-1.09,1.38-1.78,3.26-2.07,5.63-.29,2.38-.43,5.08-.43,8.1v12.33Z"/>
          <path class="cls-1" d="M186.89,150.67c-4.27.03-7.53-.55-9.8-1.63-2.27-1.09-3.82-2.81-4.67-5.17-.84-2.35-1.27-5.4-1.27-9.13v-69.87h-8.13v-12.8h8.13v-19.4h17.67v19.4h9.73v12.8h-9.73v66.8c0,1.56.24,2.73.73,3.53.49.8,1.44,1.47,2.9,1.6,1.6.15,6.43,0,6.43,0v13.2s-7.8.64-12,.67Z"/>
          <path class="cls-1" d="M219.5,151c-6.85,0-11.59-2.49-14.23-7.47-2.65-4.98-4.01-11.58-4.1-19.8v-6.4c0-5.33.77-9.67,2.3-13,1.53-3.33,3.72-6.04,6.57-8.13,2.84-2.09,6.24-3.91,10.2-5.47,3.95-1.55,8.36-3.22,13.2-5v-8.73c0-3.38-.13-6.08-.4-8.1-.27-2.02-.87-3.5-1.8-4.43-.93-.93-2.38-1.4-4.33-1.4s-3.37.48-4.37,1.43c-1,.96-1.68,2.42-2.03,4.4-.36,1.98-.53,4.5-.53,7.57v4.47h-17.47v-3c0-4.58.39-8.67,1.17-12.27.78-3.6,2.1-6.65,3.97-9.17,1.87-2.51,4.41-4.42,7.63-5.73,3.22-1.31,7.28-1.97,12.17-1.97,4.31,0,8,.61,11.07,1.83,3.07,1.22,5.56,3.04,7.47,5.47,1.91,2.42,3.31,5.46,4.2,9.1.89,3.64,1.33,7.89,1.33,12.73v72.07h-17.8v-9.93c-.53,1.91-1.44,3.7-2.73,5.37-1.29,1.67-2.9,3.01-4.83,4.03-1.93,1.02-4.14,1.53-6.63,1.53ZM225.63,137.4c2.22,0,4-.8,5.33-2.4,1.33-1.6,2.16-3.22,2.47-4.87v-34.4c-2.67,1.2-4.91,2.32-6.73,3.37-1.82,1.04-3.29,2.19-4.4,3.43-1.11,1.24-1.91,2.71-2.4,4.4-.49,1.69-.73,3.76-.73,6.2v11.2c0,4.58.48,7.9,1.43,9.97.96,2.07,2.63,3.1,5.03,3.1Z"/>
          <path class="cls-1" d="M335.78,151c-6.85,0-11.59-2.49-14.23-7.47-2.65-4.98-4.01-11.58-4.1-19.8v-6.4c0-5.33.77-9.67,2.3-13,1.53-3.33,3.72-6.04,6.57-8.13,2.84-2.09,6.24-3.91,10.2-5.47,3.95-1.55,8.36-3.22,13.2-5v-8.73c0-3.38-.13-6.08-.4-8.1-.27-2.02-.87-3.5-1.8-4.43-.93-.93-2.38-1.4-4.33-1.4s-3.37.48-4.37,1.43c-1,.96-1.68,2.42-2.03,4.4-.36,1.98-.53,4.5-.53,7.57v4.47h-17.47v-3c0-4.58.39-8.67,1.17-12.27.78-3.6,2.1-6.65,3.97-9.17,1.87-2.51,4.41-4.42,7.63-5.73,3.22-1.31,7.28-1.97,12.17-1.97,4.31,0,8,.61,11.07,1.83,3.07,1.22,5.56,3.04,7.47,5.47,1.91,2.42,3.31,5.46,4.2,9.1.89,3.64,1.33,7.89,1.33,12.73v72.07h-17.8v-9.93c-.53,1.91-1.44,3.7-2.73,5.37s-2.9,3.01-4.83,4.03c-1.93,1.02-4.14,1.53-6.63,1.53ZM341.92,137.4c2.22,0,4-.8,5.33-2.4,1.33-1.6,2.16-3.22,2.47-4.87v-34.4c-2.67,1.2-4.91,2.32-6.73,3.37-1.82,1.04-3.29,2.19-4.4,3.43-1.11,1.24-1.91,2.71-2.4,4.4-.49,1.69-.73,3.76-.73,6.2v11.2c0,4.58.48,7.9,1.43,9.97.96,2.07,2.63,3.1,5.03,3.1Z"/>
          <g>
            <rect class="cls-1" x="109.02" y="50" width="17.66" height="100"/>
            <path class="cls-1" d="M155.75,54.57c-2.89-3.84-7.23-5.77-13-5.77-4.14,0-7.62,1.26-10.47,3.77-2.85,2.51-4.72,5.47-5.61,8.9l15.73,10.49v78.04h17.67v-78.73c0-7.29-1.45-12.86-4.33-16.7Z"/>
          </g>
          <path class="cls-1" d="M306.38,54.57c-2.89-3.84-7.23-5.77-13-5.77-4.14,0-7.62,1.26-10.47,3.77-2.85,2.51-4.72,5.47-5.61,8.9v-11.47h-17.66v100h17.66v-78.04l15.73-10.49v88.53h17.67v-78.73c0-7.29-1.45-12.86-4.33-16.7Z"/>
        </g>
        <g id="Descritor">
          <path class="cls-1" d="M137.69,182.79c.16-.99.44-1.83.84-2.54.4-.71.95-1.25,1.65-1.63.7-.38,1.59-.57,2.67-.57.92,0,1.72.2,2.38.61.66.41,1.19,1.02,1.57,1.85s.61,1.85.67,3.08h3.84c-.06-1.91-.44-3.54-1.14-4.89-.7-1.35-1.67-2.38-2.91-3.1-1.24-.72-2.71-1.07-4.4-1.07s-3.02.26-4.22.79c-1.19.52-2.18,1.28-2.96,2.28-.78.99-1.36,2.2-1.74,3.63-.39,1.43-.58,3.05-.58,4.86v2.82c0,1.82.19,3.44.58,4.86.38,1.42.97,2.63,1.74,3.63.78.99,1.76,1.75,2.96,2.28,1.19.52,2.6.79,4.22.79,1.51,0,2.89-.35,4.15-1.05,1.25-.7,2.27-1.68,3.05-2.93.78-1.26,1.2-2.71,1.26-4.38h-3.84c-.06,1.15-.31,2.09-.74,2.81s-.98,1.24-1.65,1.57c-.67.33-1.41.5-2.23.5-1.08,0-1.97-.19-2.68-.57-.71-.38-1.26-.92-1.65-1.63-.39-.71-.67-1.56-.83-2.55-.16-.99-.24-2.1-.24-3.32v-2.82c0-1.22.08-2.32.24-3.3Z"/>
          <path class="cls-1" d="M170.54,177.52c-.89-.99-1.91-1.73-3.09-2.23-1.17-.5-2.44-.75-3.81-.75s-2.6.25-3.77.75c-1.17.5-2.19,1.24-3.07,2.23-.88.99-1.56,2.21-2.06,3.68-.49,1.47-.74,3.18-.74,5.12v2.38c0,1.94.25,3.65.74,5.12s1.18,2.7,2.07,3.68c.89.99,1.91,1.73,3.08,2.22s2.43.74,3.79.74,2.62-.25,3.79-.74,2.2-1.23,3.07-2.22c.88-.99,1.56-2.21,2.06-3.68.49-1.47.74-3.18.74-5.12v-2.38c0-1.94-.25-3.65-.74-5.12-.49-1.47-1.18-2.7-2.07-3.68ZM169.26,188.7c0,1.37-.12,2.57-.35,3.6-.23,1.03-.58,1.9-1.04,2.59-.46.69-1.04,1.21-1.74,1.56-.7.35-1.51.52-2.44.52-.8,0-1.54-.17-2.22-.52s-1.27-.87-1.78-1.56c-.51-.69-.9-1.56-1.18-2.59-.28-1.03-.42-2.23-.42-3.6v-2.38c0-1.37.14-2.57.42-3.59.28-1.02.67-1.89,1.17-2.59.5-.7,1.09-1.22,1.77-1.57.68-.35,1.41-.52,2.2-.52s1.54.17,2.23.52c.69.35,1.28.87,1.79,1.57.51.7.9,1.56,1.18,2.59.28,1.02.42,2.22.42,3.59v2.38Z"/>
          <path class="cls-1" d="M205.05,176.7c-.61-.73-1.35-1.27-2.23-1.63-.88-.35-1.89-.53-3.03-.53-1.39,0-2.6.29-3.65.87-1.05.58-1.92,1.36-2.62,2.35-.1.14-.19.29-.28.44-.28-.61-.61-1.15-1-1.59-.62-.71-1.34-1.23-2.16-1.56-.82-.33-1.71-.5-2.67-.5-1.45,0-2.71.3-3.8.89-.85.47-1.59,1.09-2.22,1.86l-.11-2.28h-3.84v25h4.07v-18.8c.08-.19.16-.37.24-.54.39-.79.92-1.4,1.59-1.85.67-.45,1.51-.67,2.51-.67.88,0,1.63.18,2.26.54.63.36,1.12.94,1.47,1.72s.52,1.83.52,3.14v16.45h4.09v-16.56c.04-.54.11-1.06.24-1.55.19-.72.47-1.37.84-1.93.37-.56.83-1.01,1.37-1.33s1.17-.49,1.88-.49c.88,0,1.63.16,2.26.47.63.32,1.12.86,1.47,1.64.35.78.52,1.87.52,3.27v16.47h4.09v-16.43c0-1.57-.15-2.93-.46-4.07-.31-1.14-.77-2.08-1.37-2.81Z"/>
          <path class="cls-1" d="M224.51,193.45c-.38.95-.93,1.74-1.66,2.33-.86.7-2.02,1.05-3.47,1.05-.43,0-.86-.08-1.27-.25-.42-.17-.79-.47-1.13-.89s-.61-1-.81-1.73c-.2-.73-.3-1.66-.3-2.78v-16.17h-4.07v16.13c0,1.66.16,3.09.5,4.27.33,1.19.8,2.15,1.41,2.89.61.74,1.33,1.29,2.17,1.64.84.35,1.77.53,2.81.53,1.53,0,2.81-.29,3.86-.87.83-.46,1.52-1.06,2.09-1.8l.08,2.2h3.88v-25h-4.09v18.45Z"/>
          <path class="cls-1" d="M248.52,176.62c-.59-.72-1.29-1.25-2.13-1.58-.83-.33-1.76-.5-2.77-.5-1.29,0-2.47.3-3.53.89-.98.54-1.82,1.3-2.54,2.26l-.12-2.68h-3.86v25h4.09v-18.18c.19-.41.4-.79.63-1.16.52-.79,1.12-1.4,1.81-1.85s1.44-.67,2.24-.67c.88,0,1.61.18,2.18.54.58.36,1.01.94,1.29,1.73.29.79.43,1.85.43,3.15v16.43h4.09v-16.38c0-1.65-.16-3.05-.47-4.19-.32-1.15-.77-2.08-1.35-2.81Z"/>
          <rect class="cls-1" x="255.63" y="175" width="4.07" height="25"/>
          <path class="cls-1" d="M257.71,165.9c-.77,0-1.35.24-1.73.72-.38.48-.58,1.06-.58,1.76s.19,1.23.58,1.7.96.7,1.73.7,1.35-.23,1.74-.7c.39-.47.59-1.04.59-1.7s-.2-1.28-.59-1.76c-.39-.48-.97-.72-1.74-.72Z"/>
          <path class="cls-1" d="M268.48,182.79c.16-.99.44-1.83.84-2.54.4-.71.95-1.25,1.65-1.63.7-.38,1.59-.57,2.67-.57.92,0,1.72.2,2.38.61s1.19,1.02,1.57,1.85.61,1.85.67,3.08h3.84c-.06-1.91-.44-3.54-1.14-4.89-.7-1.35-1.67-2.38-2.91-3.1-1.24-.72-2.71-1.07-4.4-1.07s-3.02.26-4.22.79c-1.19.52-2.18,1.28-2.96,2.28-.78.99-1.36,2.2-1.74,3.63-.38,1.43-.58,3.05-.58,4.86v2.82c0,1.82.19,3.44.58,4.86.38,1.42.97,2.63,1.74,3.63.78.99,1.76,1.75,2.96,2.28,1.19.52,2.6.79,4.22.79,1.51,0,2.89-.35,4.15-1.05,1.25-.7,2.27-1.68,3.05-2.93s1.2-2.71,1.26-4.38h-3.84c-.06,1.15-.31,2.09-.74,2.81s-.98,1.24-1.65,1.57c-.67.33-1.41.5-2.23.5-1.08,0-1.97-.19-2.68-.57-.71-.38-1.26-.92-1.65-1.63-.39-.71-.67-1.56-.83-2.55-.16-.99-.24-2.1-.24-3.32v-2.82c0-1.22.08-2.32.24-3.3Z"/>
          <path class="cls-1" d="M301.99,194.55v-12.34c0-1.86-.34-3.36-1.02-4.48-.68-1.12-1.61-1.94-2.8-2.44-1.19-.5-2.55-.75-4.09-.75-1.29,0-2.46.21-3.5.64s-1.93.99-2.67,1.71c-.74.72-1.31,1.51-1.7,2.39-.39.88-.59,1.76-.59,2.66h4.09c0-.71.17-1.36.5-1.94.33-.58.81-1.05,1.43-1.41.62-.35,1.37-.53,2.23-.53s1.64.14,2.23.42c.59.28,1.04.72,1.34,1.32.3.6.45,1.39.45,2.38v2.68h-2.82c-1.63,0-3.07.21-4.31.62-1.24.42-2.27,1-3.08,1.74-.82.75-1.43,1.63-1.85,2.65-.42,1.02-.62,2.13-.62,3.33,0,1.59.3,2.92.9,4,.6,1.08,1.44,1.89,2.53,2.45,1.09.55,2.35.83,3.8.83.99,0,1.88-.2,2.67-.61.79-.41,1.48-.93,2.07-1.57.3-.33.57-.67.8-1.01.02.25.04.5.08.76.11.82.26,1.48.46,1.98h4.23v-.37c-.25-.68-.43-1.49-.57-2.43-.13-.94-.2-1.83-.2-2.66ZM295.8,196.03c-.79.48-1.69.72-2.73.72-.85,0-1.55-.13-2.1-.39-.55-.26-.97-.69-1.25-1.28s-.42-1.39-.42-2.39c0-.77.15-1.46.45-2.06s.74-1.11,1.31-1.51c.57-.41,1.25-.72,2.04-.94.79-.22,1.68-.32,2.65-.32h2.15v5.98c-.08.15-.16.31-.27.47-.44.68-1.05,1.26-1.84,1.73Z"/>
          <path class="cls-1" d="M310.64,182.79c.16-.99.44-1.83.84-2.54.4-.71.95-1.25,1.65-1.63.7-.38,1.59-.57,2.67-.57.92,0,1.72.2,2.38.61s1.19,1.02,1.57,1.85.61,1.85.67,3.08h3.84c-.06-1.91-.44-3.54-1.14-4.89-.7-1.35-1.67-2.38-2.91-3.1-1.24-.72-2.71-1.07-4.4-1.07s-3.02.26-4.22.79c-1.19.52-2.18,1.28-2.96,2.28-.78.99-1.36,2.2-1.74,3.63-.38,1.43-.58,3.05-.58,4.86v2.82c0,1.82.19,3.44.58,4.86.38,1.42.97,2.63,1.74,3.63.78.99,1.76,1.75,2.96,2.28.58.26,1.22.45,1.9.58l-.64,3.1c.72.06,1.31.16,1.74.31.44.15.76.37.97.66.21.29.31.69.31,1.2,0,.54-.13.98-.38,1.32s-.6.59-1.04.74c-.44.15-.95.23-1.54.23l.14,2.47c.99,0,1.85-.12,2.59-.35.74-.23,1.36-.56,1.86-.98.5-.42.87-.93,1.12-1.53.25-.59.37-1.25.37-1.98,0-1.34-.3-2.3-.89-2.89-.59-.59-1.25-.96-1.98-1.11l.19-1.02c1.31-.07,2.52-.4,3.63-1.02,1.25-.7,2.27-1.68,3.05-2.93s1.2-2.71,1.26-4.38h-3.84c-.06,1.15-.31,2.09-.74,2.81s-.98,1.24-1.65,1.57c-.67.33-1.41.5-2.23.5-1.08,0-1.97-.19-2.68-.57-.71-.38-1.26-.92-1.65-1.63-.39-.71-.67-1.56-.83-2.55-.16-.99-.24-2.1-.24-3.32v-2.82c0-1.22.08-2.32.24-3.3Z"/>
          <path class="cls-1" d="M332.69,169.39c.35-.49.79-.74,1.32-.74s.99.11,1.35.33c.36.22.71.48,1.04.76.33.29.71.54,1.14.76.43.22.97.34,1.62.34.8,0,1.53-.23,2.18-.69.65-.46,1.17-1.12,1.56-1.96.38-.85.58-1.83.58-2.96l-2.66-.25c0,.72-.18,1.34-.54,1.84-.36.5-.8.75-1.33.75s-.97-.11-1.37-.33c-.41-.22-.8-.48-1.17-.76-.37-.29-.76-.54-1.18-.76-.42-.22-.89-.34-1.43-.34-.8,0-1.53.24-2.18.73s-1.17,1.16-1.55,2.01-.57,1.84-.57,2.97l2.66.14c0-.72.18-1.33.53-1.83Z"/>
          <path class="cls-1" d="M344.15,194.55v-12.34c0-1.86-.34-3.36-1.02-4.48-.68-1.12-1.61-1.94-2.8-2.44-1.19-.5-2.55-.75-4.09-.75-1.29,0-2.46.21-3.5.64s-1.93.99-2.67,1.71c-.74.72-1.31,1.51-1.7,2.39-.39.88-.59,1.76-.59,2.66h4.09c0-.71.17-1.36.5-1.94.33-.58.81-1.05,1.43-1.41.62-.35,1.37-.53,2.23-.53s1.64.14,2.23.42,1.04.72,1.34,1.32c.3.6.45,1.39.45,2.38v2.68h-2.82c-1.63,0-3.07.21-4.31.62-1.24.42-2.27,1-3.08,1.74-.82.75-1.43,1.63-1.85,2.65-.42,1.02-.62,2.13-.62,3.33,0,1.59.3,2.92.9,4,.6,1.08,1.44,1.89,2.53,2.45,1.09.55,2.35.83,3.8.83.99,0,1.88-.2,2.67-.61.79-.41,1.48-.93,2.07-1.57.3-.33.57-.67.8-1.01.02.25.04.5.08.76.11.82.26,1.48.46,1.98h4.23v-.37c-.25-.68-.43-1.49-.57-2.43-.13-.94-.2-1.83-.2-2.66ZM337.96,196.03c-.79.48-1.69.72-2.73.72-.85,0-1.55-.13-2.1-.39-.55-.26-.97-.69-1.25-1.28s-.42-1.39-.42-2.39c0-.77.15-1.46.45-2.06s.74-1.11,1.31-1.51c.57-.41,1.25-.72,2.04-.94.79-.22,1.68-.32,2.65-.32h2.15v5.98c-.08.15-.16.31-.27.47-.44.68-1.05,1.26-1.84,1.73Z"/>
          <path class="cls-1" d="M367.04,181.2c-.49-1.47-1.18-2.7-2.07-3.68-.89-.99-1.91-1.73-3.09-2.23-1.17-.5-2.44-.75-3.81-.75s-2.6.25-3.77.75c-1.17.5-2.19,1.24-3.07,2.23-.88.99-1.56,2.21-2.06,3.68-.49,1.47-.74,3.18-.74,5.12v2.38c0,1.94.25,3.65.74,5.12.49,1.47,1.18,2.7,2.07,3.68.89.99,1.91,1.73,3.08,2.22,1.17.49,2.43.74,3.79.74s2.62-.25,3.79-.74c1.17-.49,2.2-1.23,3.07-2.22.88-.99,1.56-2.21,2.06-3.68.49-1.47.74-3.18.74-5.12v-2.38c0-1.94-.25-3.65-.74-5.12ZM363.69,188.7c0,1.37-.12,2.57-.35,3.6-.23,1.03-.58,1.9-1.04,2.59-.46.69-1.04,1.21-1.74,1.56-.7.35-1.51.52-2.44.52-.8,0-1.54-.17-2.22-.52s-1.27-.87-1.78-1.56c-.51-.69-.9-1.56-1.18-2.59-.28-1.03-.42-2.23-.42-3.6v-2.38c0-1.37.14-2.57.42-3.59.28-1.02.67-1.89,1.17-2.59.5-.7,1.09-1.22,1.77-1.57.68-.35,1.41-.52,2.2-.52s1.54.17,2.23.52c.69.35,1.28.87,1.79,1.57.51.7.9,1.56,1.18,2.59.28,1.02.42,2.22.42,3.59v2.38Z"/>
        </g>
      </g>
      <g>
        <rect class="cls-2" x="459.15" y="21.59" width="68.94" height="124.09"/>
        <rect class="cls-2" x="459.15" y="159.47" width="41.36" height="13.79"/>
        <rect class="cls-2" x="459.15" y="187.05" width="41.36" height="41.36"/>
        <rect class="cls-2" x="514.3" y="159.47" width="68.94" height="68.94"/>
        <rect class="cls-2" x="541.88" y="21.59" width="41.36" height="124.09"/>
        <polygon class="cls-2" points="417.78 0 417.78 250 445.36 231.62 445.36 18.38 417.78 0"/>
        <polygon class="cls-2" points="597.03 18.38 597.03 231.62 624.6 250 624.6 0 597.03 18.38"/>
        <circle class="cls-3" cx="493.62" cy="56.06" r="20.68"/>
      </g>
    </g>
  </g>
</svg>